<svg width="1024" height="1024" viewBox="0 0 1024 1024" fill="none" xmlns="http://www.w3.org/2000/svg">
  <rect width="1024" height="1024" fill="url(#bg)"/>

  <line x1="180" y1="380" x2="330" y2="380" stroke="white" stroke-width="34" stroke-linecap="round" opacity="0.62"/>
  <line x1="130" y1="500" x2="300" y2="500" stroke="white" stroke-width="34" stroke-linecap="round" opacity="0.62"/>
  <line x1="180" y1="620" x2="330" y2="620" stroke="white" stroke-width="34" stroke-linecap="round" opacity="0.62"/>

  <path d="M355 410H565V330H715L805 420V650H760V690C760 725 735 750 700 750H665C630 750 605 725 605 690V650H485V690C485 725 460 750 425 750H390C355 750 330 725 330 690V650H290V410H355Z" fill="white" opacity="0.96"/>

  <rect x="318" y="432" width="218" height="190" rx="22" fill="#FF6B35" opacity="0.28"/>

  <path d="M590 350V462H720V384L686 350H590Z" fill="white" opacity="0.34"/>

  <circle cx="410" cy="690" r="62" fill="#2A2A2A"/>
  <circle cx="410" cy="690" r="30" fill="#FFE66D"/>
  <circle cx="685" cy="690" r="62" fill="#2A2A2A"/>
  <circle cx="685" cy="690" r="30" fill="#FFE66D"/>

  <defs>
    <linearGradient id="bg" x1="0" y1="0" x2="1024" y2="1024" gradientUnits="userSpaceOnUse">
      <stop offset="0" stop-color="#FF6B35"/>
      <stop offset="1" stop-color="#4ECDC4"/>
    </linearGradient>
  </defs>
</svg>
